PathFileType	4	(X/Y/Z)	S00_P01_T02_Participants1-2_P1_0-100.trc
DataRate	CameraRate	NumFrames	NumMarkers	Units	OrigDataRate	OrigDataStartFrame	OrigNumFrames
60	60	5	21	m	60	0	100
Frame#	Time	RHip			RKnee			RAnkle			RBigToe			RSmallToe			RHeel			LHip			LKnee			LAnkle			LBigToe			LSmallToe			LHeel			Neck			Head			Nose			RShoulder			RElbow			RWrist			LShoulder			LElbow			LWrist		
		X1	Y1	Z1	X2	Y2	Z2	X3	Y3	Z3	X4	Y4	Z4	X5	Y5	Z5	X6	Y6	Z6	X7	Y7	Z7	X8	Y8	Z8	X9	Y9	Z9	X10	Y10	Z10	X11	Y11	Z11	X12	Y12	Z12	X13	Y13	Z13	X14	Y14	Z14	X15	Y15	Z15	X16	Y16	Z16	X17	Y17	Z17	X18	Y18	Z18	X19	Y19	Z19	X20	Y20	Z20	X21	Y21	Z21
1	0.016666666666666666	-1.0510237155186002	0.9361856716911063	-0.9743467909506633	-0.8758380190261325	0.9255532953673639	-0.7312800553390573	-0.870959232202946	0.8972178198154868	-0.9648635227671988	-0.7711050821196204	0.8914235944798632	-1.0386032403541918	-0.7938664099853852	0.8709367257523203	-1.0334727185673143	-0.8911582480488004	0.9025844443924823	-1.008278932109953	-1.051575359638444	0.9368008864210589	-1.1185269426043385	-0.8780176337376249	0.9280340946333633	-1.3567345872966423	-0.8897191615151676	0.9059750376768888	-1.123863659194455	-0.7892085520566329	0.8977631070620075	-1.057899175384859	-0.8129405050653739	0.8779711202913397	-1.0617778770424042	-0.9115339397032373	0.9126177541682039	-1.0792815966404872	-1.0727267897196409	1.3461809456018101	-1.0457897574352042	-1.0379602962325771	1.5036933551918692	-1.0581692463570003	-0.9874514087102686	1.4093456787831433	-1.0444107236224611	-1.079946423333668	1.293111541965851	-0.9138414946923592	-1.0413494072215126	1.119453477090938	-0.8283567573259635	-0.8903635740214548	1.0309224854915036	-0.9114461287319878	-1.0808611562147084	1.294178139582143	-1.1782827274146208	-1.0443948559617457	1.1218140656485491	-1.2646225074594941	-0.9050123329020631	1.0510255319225343	-1.1430172341114262
2	0.03333333333333333	-1.0510294468956867	0.9397989680434901	-0.9743412146752628	-0.8758451155539146	0.9291657804353417	-0.7312677688522986	-0.8723975606508119	0.9014608029948754	-0.9649434282907793	-0.7729756610325289	0.8957669578058786	-1.0392826684571645	-0.7957247110090764	0.8752866665713289	-1.0340731445791507	-0.8928352846889684	0.9069552268752938	-1.008230883657958	-1.0515803735025309	0.940413839392021	-1.1185216028361942	-0.8780205587358573	0.931645601280294	-1.3567260609025393	-0.8897235164814971	0.9095871864095125	-1.1238550103092038	-0.7892131401303546	0.9013750107390305	-1.0578878715810585	-0.8129451097669539	0.8815829261175853	-1.0617671709229224	-0.9115386367865705	0.9162301264328616	-1.0792731904629158	-1.0727340683625932	1.3497980214782725	-1.0457797360261656	-1.0379777105243793	1.5072995041505661	-1.058177388727901	-0.9874586122217639	1.4129628906624974	-1.0443987554706524	-1.0799538954643795	1.2967285019078956	-0.9138340171664528	-1.0410807044369264	1.121863050658405	-0.8305185731729535	-0.8886824376129043	1.0355585292660865	-0.9133502969568592	-1.0808676021259305	1.2977942349800105	-1.1782719802207746	-1.0443996907120285	1.1254280673903696	-1.2646140062628248	-0.9051839647718428	1.0566960357821973	-1.1414208712878149
3	0.05	-1.0510351211754276	0.9433733801078381	-0.9743356861786644	-0.8758521366234829	0.9327393864971798	-0.7312556342611837	-0.8738202024551325	0.9056594976475201	-0.9650127412501986	-0.7748291213660133	0.9000667690530129	-1.0399423589045376	-0.7975655859206384	0.8795927846803662	-1.034654729445162	-0.8944932163151031	0.9112802226687191	-1.0081719237204696	-1.0515853386036633	0.9439879110562245	-1.118516293062389	-0.878023453597108	0.9352182388394357	-1.3567175865136405	-0.8897278252632075	0.9131604604787286	-1.1238464390883083	-0.7892176772591424	0.904948041360096	-1.0578766866454938	-0.8129496631225167	0.8851558601144515	-1.0617565761402294	-0.9115432846508549	0.9198036220336726	-1.0792648618615788	-1.0727412970010557	1.3533761728569589	-1.0457697504001453	-1.037994931478425	1.5108668225047708	-1.0581853988738052	-0.9874657678012346	1.4165411755417863	-1.0443868511636465	-1.0799613104990775	1.300306539933704	-0.9138265752969416	-1.0408192353744916	1.1242729700128273	-0.832669595602219	-0.8870453910184479	1.0401572974259228	-0.9151907469804452	-1.0808740051739743	1.3013714153648397	-1.1782612626583224	-1.0444044886812671	1.1290031755427916	-1.2646055293019034	-0.905376755409852	1.0623180952424263	-1.1398613868094472
4	0.06666666666666667	-1.0510407078372217	0.946889707182555	-0.9743302353886816	-0.8758590445711365	0.9362549174190464	-0.7312437159635501	-0.8752194698559799	0.9097912707518565	-0.9650714794243701	-0.77665531483611	0.9042997747133487	-1.0405792443440163	-0.7993789721376617	0.8838318005131295	-1.035214826437553	-0.8961231165399445	0.9155361205460649	-1.0081028325996442	-1.0515902282168257	0.9475039025632978	-1.1185110425764877	-0.8780263028704124	0.938732816294896	-1.3567092109288288	-0.8897320648220078	0.9166756654017714	-1.1238379919841526	-0.7892221392509248	0.9084630057954058	-1.0578656806674847	-0.8129541408618786	0.8886707296640189	-1.0617461496451057	-0.9115478584100567	0.9233190452827998	-1.0792566558891226	-1.0727484358965056	1.356896178907086	-1.0457598565864752	-1.0380118668870788	1.5143761485811358	-1.0581932351379153	-0.9874728360497504	1.4200613119150949	-1.0443750768377718	-1.0966406700266083	1.300312502720738	-0.9259581551206578	-1.040566261110329	1.126669303264944	-0.8347974489307278	-0.8854603286991533	1.044692251781611	-0.9169593882239716	-1.080880330126655	1.304890465167576	-1.1782506352174922	-1.0444092236509686	1.132520185724156	-1.2645971243301342	-0.9055887105152042	1.0678606859831472	-1.1383466036848795
5	0.08333333333333333	-1.0510461767418189	0.950329057422494	-0.9743248920315231	-0.8758658023190239	0.9396934858457205	-0.7312320769103781	-0.8765878086674465	0.9138338270711585	-0.9651198636034256	-0.7784442008297854	0.9084430315234866	-1.0411905685493306	-0.8011549225118563	0.8879807493689662	-1.035751091921993	-0.8977162311158582	0.9196999610284093	-1.0080246162032944	-1.0515950159234522	0.9509429239050394	-1.1185058808055661	-0.878029091310348	0.9421704514170942	-1.3567009810541732	-0.8897362124627883	0.9201139155095066	-1.1238297150431984	-0.7892265023240315	0.9119010197281139	-1.0578549128374892	-0.8129585191311394	0.8921086509494902	-1.0617359475640915	-0.9115523335375844	0.9267575093168519	-1.079248617161632	-1.0727554453363484	1.3603391279708092	-1.0457501112663503	-1.0380284261438757	1.5178086294209132	-1.0582008575061632	-0.9874797775626488	1.4235043874819506	-1.0443634989621384	-1.0966590116662474	1.303745400297259	-0.9259695542914004	-1.040322928086378	1.129037783698288	-0.8368897317003271	-0.8839344573816073	1.0491371614623217	-0.9186491905470644	-1.0808865417433182	1.3083324779294638	-1.1782401592630205	-1.0444138695762322	1.1359602024918773	-1.2645888397836067	-0.9058173888814721	1.0732930528771034	-1.1368837801571035
